<svg width="18" height="10" viewBox="0 0 18 10" fill="none" xmlns="http://www.w3.org/2000/svg">
<path d="M17.031 1.5286L9.53104 9.0286C9.46139 9.09833 9.37867 9.15365 9.28762 9.1914C9.19657 9.22914 9.09898 9.24856 9.00042 9.24856C8.90186 9.24856 8.80426 9.22914 8.71321 9.1914C8.62216 9.15365 8.53945 9.09833 8.46979 9.0286L0.969792 1.5286C0.829062 1.38787 0.75 1.197 0.75 0.997976C0.75 0.798953 0.829062 0.608081 0.969792 0.46735C1.11052 0.32662 1.30139 0.247559 1.50042 0.247559C1.69944 0.247559 1.89031 0.32662 2.03104 0.46735L9.00042 7.43766L15.9698 0.46735C16.0395 0.397668 16.1222 0.342392 16.2132 0.30468C16.3043 0.266968 16.4019 0.247559 16.5004 0.247559C16.599 0.247559 16.6965 0.266968 16.7876 0.30468C16.8786 0.342392 16.9614 0.397668 17.031 0.46735C17.1007 0.537033 17.156 0.619758 17.1937 0.710803C17.2314 0.801848 17.2508 0.899429 17.2508 0.997976C17.2508 1.09652 17.2314 1.1941 17.1937 1.28515C17.156 1.37619 17.1007 1.45892 17.031 1.5286Z" fill="#0C1312"/>
</svg>
