<svg width="453" height="165" viewBox="0 0 453 165" fill="none" xmlns="http://www.w3.org/2000/svg">
<rect width="359" height="68" rx="20" fill="white"/>
<path d="M58.9797 30.1967C56.1079 30.1967 54.0228 28.3084 54.0228 25.7316H55.4784C55.4784 27.5412 56.9537 28.8001 58.9797 28.8001C60.8877 28.8001 62.304 27.7576 62.304 26.2823C62.304 22.309 54.2392 24.7481 54.2392 19.6928C54.2392 17.5685 56.1472 16.0342 58.7634 16.0342C61.6549 16.0342 63.3465 17.8045 63.3465 20.0272H61.8319C61.7729 18.5323 60.5337 17.4504 58.724 17.4504C56.934 17.4504 55.6948 18.3553 55.6948 19.6928C55.6948 23.3121 63.7792 20.8534 63.7792 26.2823C63.7792 28.5444 61.7335 30.1967 58.9797 30.1967ZM74.9465 24.9251C74.9465 25.0628 74.9465 25.3578 74.9268 25.4759H66.9211C67.0588 27.5019 68.416 28.8985 70.4224 28.8985C71.937 28.8985 73.1762 28.151 73.4319 26.9708H74.8678C74.4941 28.9181 72.6648 30.1967 70.383 30.1967C67.6095 30.1967 65.5048 28.033 65.5048 25.1611C65.5048 22.4073 67.6489 20.2436 70.3634 20.2436C72.9402 20.2436 74.9465 22.2106 74.9465 24.9251ZM66.9801 24.2563H73.4122C73.2745 22.6827 72.0157 21.5418 70.3044 21.5418C68.6127 21.5418 67.3145 22.604 66.9801 24.2563ZM81.8601 20.2436C84.3385 20.2436 85.8925 21.8762 85.8925 24.4924V30H84.4566V24.63C84.4566 22.8007 83.3157 21.6008 81.565 21.6008C79.7751 21.6008 78.5949 22.8007 78.5949 24.63V30H77.1589V20.4403H78.5949V22.309C79.2046 21.0107 80.3652 20.2436 81.8601 20.2436ZM93.0257 21.7779H90.3505V26.7741C90.3505 28.2297 91.1373 28.7608 92.3569 28.7608C92.5733 28.7608 92.829 28.7411 93.0257 28.6821V30C92.77 30.059 92.3962 30.0984 92.1012 30.0984C90.1538 30.0984 88.9146 29.0362 88.9146 26.7938V21.7779H87.0263V20.4403H88.9146V17.8045H90.3505V20.4403H93.0257V21.7779Z" fill="#373B3E"/>
<path d="M64.566 50H62.8154L58.9404 44.1776L55.0654 50H53.3344L58.0749 42.8794L53.6491 36.2309H55.4194L58.9601 41.5615L62.5007 36.2309H64.2317L59.8255 42.8597L64.566 50ZM65.7944 50V48.8985L71.0856 43.6072C72.4625 42.2106 73.1707 41.1288 73.1707 40.0469C73.1707 38.552 71.9905 37.4701 70.3972 37.4701C68.5678 37.4701 67.2696 38.6503 67.309 40.578H65.8337C65.755 37.8045 67.7614 36.0342 70.4168 36.0342C72.8756 36.0342 74.6853 37.6865 74.6853 40.0076C74.6853 41.5025 73.7214 42.9974 72.1478 44.512L68.1154 48.5641H74.8623V50H65.7944ZM79.324 48.092L78.0061 52.085H76.8653L77.7111 48.092H79.324ZM91.1893 45.5545V46.9118H89.3206V50H87.8454V46.9118H80.8625V45.8299L85.9374 36.2309H87.6093L82.6918 45.5545H87.8454V40.8337H89.3206V45.5545H91.1893ZM102.465 45.5545V46.9118H100.596V50H99.1211V46.9118H92.1382V45.8299L97.2131 36.2309H98.8851L93.9675 45.5545H99.1211V40.8337H100.596V45.5545H102.465ZM107.656 36.0342C110.214 36.0342 112.299 38.0799 112.299 40.5977C112.299 41.5615 111.886 42.8401 111.138 44.0399L107.42 50H105.729L109.171 44.6104C108.66 44.9251 108.01 45.1021 107.44 45.1021C104.942 45.1021 103.014 43.1548 103.014 40.5977C103.014 38.0799 105.099 36.0342 107.656 36.0342ZM107.676 43.8236C109.446 43.8236 110.843 42.4073 110.843 40.6173C110.843 38.8274 109.446 37.4504 107.656 37.4504C105.847 37.4504 104.45 38.8274 104.45 40.6173C104.45 42.4073 105.866 43.8236 107.676 43.8236Z" fill="#FAB005"/>
<rect x="55" y="42.1836" width="8" height="1.71429" fill="#FAB005"/>
<path opacity="0.44" d="M155.078 34.2436C157.557 34.2436 159.11 35.8762 159.11 38.4924V44H157.675V38.63C157.675 36.8007 156.534 35.6008 154.783 35.6008C152.993 35.6008 151.813 36.8007 151.813 38.63V44H150.377V34.4403H151.813V36.309C152.423 35.0107 153.583 34.2436 155.078 34.2436ZM169.929 34.4403H171.365V44H169.929V41.7773C169.24 43.2919 167.863 44.1967 166.034 44.1967C163.398 44.1967 161.294 41.974 161.294 39.2005C161.294 36.427 163.398 34.2436 166.034 34.2436C167.863 34.2436 169.24 35.1288 169.929 36.6434V34.4403ZM166.309 42.8395C168.394 42.8395 169.929 41.3052 169.929 39.2005C169.929 37.1154 168.394 35.5812 166.309 35.5812C164.283 35.5812 162.71 37.1941 162.71 39.2005C162.71 41.2462 164.283 42.8395 166.309 42.8395ZM178.821 34.2436C181.299 34.2436 182.853 35.8762 182.853 38.4924V44H181.417V38.63C181.417 36.8007 180.276 35.6008 178.526 35.6008C176.736 35.6008 175.555 36.8007 175.555 38.63V44H174.119V34.4403H175.555V36.309C176.165 35.0107 177.326 34.2436 178.821 34.2436ZM189.973 34.2436C192.747 34.2436 194.93 36.4073 194.93 39.2202C194.93 42.033 192.747 44.1967 189.973 44.1967C187.2 44.1967 185.036 42.033 185.036 39.2202C185.036 36.4073 187.2 34.2436 189.973 34.2436ZM189.973 35.6008C187.987 35.6008 186.452 37.1745 186.452 39.2202C186.452 41.2462 187.987 42.8395 189.973 42.8395C191.96 42.8395 193.514 41.2462 193.514 39.2202C193.514 37.1745 191.96 35.6008 189.973 35.6008ZM196.129 45.5343V44.1967H205.473V45.5343H196.129ZM211.445 30.2309V44H209.95V32.2766L206.784 34.9911V33.1617L210.363 30.2309H211.445ZM219.064 34.2436C221.542 34.2436 223.096 35.8762 223.096 38.4924V44H221.66V38.63C221.66 36.8007 220.519 35.6008 218.769 35.6008C216.979 35.6008 215.798 36.8007 215.798 38.63V44H214.363V34.4403H215.798V36.309C216.408 35.0107 217.569 34.2436 219.064 34.2436ZM233.442 34.4403V35.5025L227.069 42.6624L233.462 42.6428V44H225.102V42.9181L231.495 35.7582L225.515 35.7779V34.4403H233.442ZM237.848 36.0926L241.841 31.6471H235.114V30.2309H243.926V31.2734L239.678 35.9156C242.077 35.6008 244.044 37.3121 244.044 39.7119C244.044 42.328 242.077 44.1967 239.363 44.1967C236.904 44.1967 235.016 42.7214 234.76 40.5577H236.235C236.491 41.856 237.671 42.7608 239.363 42.7608C241.192 42.7608 242.51 41.4822 242.51 39.6726C242.51 37.5089 240.346 36.4663 237.848 37.1351V36.0926ZM250.597 34.2436C253.371 34.2436 255.554 36.4073 255.554 39.2202C255.554 42.033 253.371 44.1967 250.597 44.1967C247.824 44.1967 245.66 42.033 245.66 39.2202C245.66 36.4073 247.824 34.2436 250.597 34.2436ZM250.597 35.6008C248.611 35.6008 247.076 37.1745 247.076 39.2202C247.076 41.2462 248.611 42.8395 250.597 42.8395C252.584 42.8395 254.138 41.2462 254.138 39.2202C254.138 37.1745 252.584 35.6008 250.597 35.6008ZM268.89 34.2436C271.25 34.2436 272.784 35.7582 272.784 38.276V44H271.348V38.5317C271.348 36.7024 270.345 35.6008 268.673 35.6008C267.375 35.6008 265.979 36.4073 265.979 38.5317V44H264.543V38.5317C264.543 36.7024 263.539 35.6008 261.867 35.6008C260.609 35.6008 259.173 36.368 259.173 38.5317V44H257.737V34.4403H259.173V36.0926C259.841 34.755 261.12 34.2436 262.3 34.2436C263.913 34.2436 265.034 34.9321 265.585 36.309C266.136 34.9714 267.473 34.2436 268.89 34.2436ZM276.448 44.1967C275.799 44.1967 275.308 43.7049 275.308 43.0558C275.308 42.4264 275.799 41.915 276.448 41.915C277.117 41.915 277.609 42.4264 277.609 43.0558C277.609 43.7049 277.117 44.1967 276.448 44.1967ZM281.039 44.1967C280.39 44.1967 279.899 43.7049 279.899 43.0558C279.899 42.4264 280.39 41.915 281.039 41.915C281.708 41.915 282.2 42.4264 282.2 43.0558C282.2 43.7049 281.708 44.1967 281.039 44.1967ZM285.63 44.1967C284.981 44.1967 284.49 43.7049 284.49 43.0558C284.49 42.4264 284.981 41.915 285.63 41.915C286.299 41.915 286.791 42.4264 286.791 43.0558C286.791 43.7049 286.299 44.1967 285.63 44.1967ZM297.499 44H295.591L290.752 39.3185V44H289.317V30.2309H290.752V38.7087L295.375 34.4403H297.185L292.208 39.0038L297.499 44ZM299.917 30.2702C300.468 30.2702 300.96 30.7423 300.96 31.2931C300.96 31.8635 300.468 32.3356 299.917 32.3356C299.347 32.3356 298.895 31.8635 298.895 31.2931C298.895 30.7423 299.347 30.2702 299.917 30.2702ZM297.675 46.6358C297.734 46.6358 297.813 46.6555 297.911 46.6555C298.757 46.6555 299.209 46.0654 299.209 44.6885V34.4403H300.645V44.8065C300.645 46.8915 299.74 47.9734 298.049 47.9734C297.931 47.9734 297.813 47.9734 297.675 47.9537V46.6358ZM307.606 30.2309V44H306.111V32.2766L302.944 34.9911V33.1617L306.524 30.2309H307.606ZM318.116 34.4403V35.5025L311.743 42.6624L318.136 42.6428V44H309.776V42.9181L316.169 35.7582L310.189 35.7779V34.4403H318.116ZM324.283 34.2436C327.057 34.2436 329.24 36.4073 329.24 39.2202C329.24 42.033 327.057 44.1967 324.283 44.1967C321.51 44.1967 319.346 42.033 319.346 39.2202C319.346 36.4073 321.51 34.2436 324.283 34.2436ZM324.283 35.6008C322.297 35.6008 320.762 37.1745 320.762 39.2202C320.762 41.2462 322.297 42.8395 324.283 42.8395C326.27 42.8395 327.824 41.2462 327.824 39.2202C327.824 37.1745 326.27 35.6008 324.283 35.6008ZM335.867 31.3324C334.668 31.3324 333.861 31.8438 333.861 33.2994V34.4403H336.556V35.7779H333.861V44H332.425V35.7779H330.537V34.4403H332.425V33.2798C332.425 31.057 333.684 29.9949 335.612 29.9949C335.907 29.9949 336.281 30.0342 336.556 30.0932V31.4111C336.34 31.3521 336.104 31.3324 335.867 31.3324Z" fill="#798088"/>
<circle cx="26.5" cy="32.5" r="15.5" fill="#E8EAEC"/>
<path d="M27 39.4165L27 26.5832" stroke="#798088" stroke-width="1.83333" stroke-linecap="round" stroke-linejoin="round"/>
<path d="M20.583 33L26.9997 26.5833L33.4163 33" stroke="#798088" stroke-width="1.83333" stroke-linecap="round" stroke-linejoin="round"/>
<rect x="94" y="97" width="359" height="68" rx="20" fill="white"/>
<path d="M158.389 127H156.599L152.744 121.099H150.029V127H148.554V113.231H153.53C155.812 113.231 157.602 114.903 157.602 117.126C157.602 119.211 156.324 120.706 154.376 121.04L158.389 127ZM150.029 114.647V119.683H153.491C155.006 119.683 156.107 118.601 156.107 117.126C156.107 115.69 155.006 114.647 153.491 114.647H150.029ZM168.389 121.925C168.389 122.063 168.389 122.358 168.37 122.476H160.364C160.502 124.502 161.859 125.898 163.865 125.898C165.38 125.898 166.619 125.151 166.875 123.971H168.311C167.937 125.918 166.108 127.197 163.826 127.197C161.052 127.197 158.948 125.033 158.948 122.161C158.948 119.407 161.092 117.244 163.806 117.244C166.383 117.244 168.389 119.211 168.389 121.925ZM160.423 121.256H166.855C166.717 119.683 165.459 118.542 163.747 118.542C162.056 118.542 160.757 119.604 160.423 121.256ZM174.681 127.197C171.907 127.197 169.743 125.033 169.743 122.22C169.743 119.407 171.907 117.244 174.681 117.244C176.844 117.244 178.752 118.66 179.106 120.568H177.651C177.336 119.427 176.097 118.601 174.681 118.601C172.694 118.601 171.16 120.174 171.16 122.22C171.16 124.246 172.694 125.839 174.681 125.839C176.077 125.839 177.375 125.013 177.651 123.774H179.106C178.811 125.8 176.864 127.197 174.681 127.197ZM189.981 121.925C189.981 122.063 189.981 122.358 189.961 122.476H181.955C182.093 124.502 183.45 125.898 185.456 125.898C186.971 125.898 188.21 125.151 188.466 123.971H189.902C189.528 125.918 187.699 127.197 185.417 127.197C182.644 127.197 180.539 125.033 180.539 122.161C180.539 119.407 182.683 117.244 185.397 117.244C187.974 117.244 189.981 119.211 189.981 121.925ZM182.014 121.256H188.446C188.309 119.683 187.05 118.542 185.338 118.542C183.647 118.542 182.348 119.604 182.014 121.256ZM192.921 113.27C193.471 113.27 193.963 113.742 193.963 114.293C193.963 114.864 193.471 115.336 192.921 115.336C192.35 115.336 191.898 114.864 191.898 114.293C191.898 113.742 192.35 113.27 192.921 113.27ZM192.193 117.44H193.629V127H192.193V117.44ZM204.76 117.44L200.688 127H199.429L195.338 117.44H196.892L200.059 125.19L203.186 117.44H204.76ZM214.991 121.925C214.991 122.063 214.991 122.358 214.971 122.476H206.965C207.103 124.502 208.46 125.898 210.467 125.898C211.981 125.898 213.22 125.151 213.476 123.971H214.912C214.538 125.918 212.709 127.197 210.427 127.197C207.654 127.197 205.549 125.033 205.549 122.161C205.549 119.407 207.693 117.244 210.408 117.244C212.984 117.244 214.991 119.211 214.991 121.925ZM207.024 121.256H213.457C213.319 119.683 212.06 118.542 210.349 118.542C208.657 118.542 207.359 119.604 207.024 121.256Z" fill="#373B3E"/>
<path d="M158.566 147H156.815L152.94 141.178L149.065 147H147.334L152.075 139.879L147.649 133.231H149.419L152.96 138.562L156.501 133.231H158.232L153.826 139.86L158.566 147ZM164.515 133.231V147H163.02V135.277L159.853 137.991V136.162L163.433 133.231H164.515ZM169.271 145.092L167.953 149.085H166.812L167.658 145.092H169.271ZM175.648 147.177C173.012 147.177 171.104 145.485 171.104 143.164C171.104 141.512 172.245 140.056 173.878 139.584C172.58 139.152 171.655 137.912 171.655 136.594C171.655 134.549 173.327 133.074 175.648 133.074C177.969 133.074 179.641 134.549 179.641 136.594C179.641 137.912 178.717 139.152 177.419 139.584C179.051 140.056 180.192 141.512 180.192 143.164C180.192 145.485 178.284 147.177 175.648 147.177ZM175.648 138.896C177.143 138.896 178.205 137.971 178.205 136.654C178.205 135.355 177.143 134.411 175.648 134.411C174.153 134.411 173.091 135.355 173.091 136.654C173.091 137.971 174.153 138.896 175.648 138.896ZM175.648 145.8C177.438 145.8 178.736 144.64 178.736 143.066C178.736 141.512 177.438 140.371 175.648 140.371C173.858 140.371 172.56 141.512 172.56 143.066C172.56 144.64 173.858 145.8 175.648 145.8ZM180.796 133.231H189.824V134.293L183.786 147H182.133L188.054 134.647H180.796V133.231ZM190.779 147V145.898L196.07 140.607C197.447 139.211 198.155 138.129 198.155 137.047C198.155 135.552 196.975 134.47 195.381 134.47C193.552 134.47 192.254 135.65 192.293 137.578H190.818C190.739 134.805 192.746 133.034 195.401 133.034C197.86 133.034 199.67 134.686 199.67 137.008C199.67 138.502 198.706 139.997 197.132 141.512L193.1 145.564H199.847V147H190.779Z" fill="#FAB005"/>
<rect x="149" y="139.184" width="8" height="1.71429" fill="#FAB005"/>
<g opacity="0.44" filter="url(#filter0_d_111152_81)">
<path d="M244.078 131.244C246.557 131.244 248.11 132.876 248.11 135.492V141H246.675V135.63C246.675 133.801 245.534 132.601 243.783 132.601C241.993 132.601 240.813 133.801 240.813 135.63V141H239.377V131.44H240.813V133.309C241.423 132.011 242.583 131.244 244.078 131.244ZM258.929 131.44H260.365V141H258.929V138.777C258.24 140.292 256.863 141.197 255.034 141.197C252.398 141.197 250.294 138.974 250.294 136.2C250.294 133.427 252.398 131.244 255.034 131.244C256.863 131.244 258.24 132.129 258.929 133.643V131.44ZM255.309 139.839C257.394 139.839 258.929 138.305 258.929 136.2C258.929 134.115 257.394 132.581 255.309 132.581C253.283 132.581 251.71 134.194 251.71 136.2C251.71 138.246 253.283 139.839 255.309 139.839ZM267.821 131.244C270.299 131.244 271.853 132.876 271.853 135.492V141H270.417V135.63C270.417 133.801 269.276 132.601 267.526 132.601C265.736 132.601 264.555 133.801 264.555 135.63V141H263.119V131.44H264.555V133.309C265.165 132.011 266.326 131.244 267.821 131.244ZM278.973 131.244C281.747 131.244 283.93 133.407 283.93 136.22C283.93 139.033 281.747 141.197 278.973 141.197C276.2 141.197 274.036 139.033 274.036 136.22C274.036 133.407 276.2 131.244 278.973 131.244ZM278.973 132.601C276.987 132.601 275.452 134.174 275.452 136.22C275.452 138.246 276.987 139.839 278.973 139.839C280.96 139.839 282.514 138.246 282.514 136.22C282.514 134.174 280.96 132.601 278.973 132.601ZM285.129 142.534V141.197H294.473V142.534H285.129ZM298.4 133.093L302.393 128.647H295.665V127.231H304.478V128.273L300.229 132.916C302.629 132.601 304.596 134.312 304.596 136.712C304.596 139.328 302.629 141.197 299.914 141.197C297.455 141.197 295.567 139.721 295.311 137.558H296.787C297.042 138.856 298.223 139.761 299.914 139.761C301.744 139.761 303.061 138.482 303.061 136.673C303.061 134.509 300.898 133.466 298.4 134.135V133.093ZM311.188 128.332C309.988 128.332 309.181 128.844 309.181 130.299V131.44H311.876V132.778H309.181V141H307.746V132.778H305.857V131.44H307.746V130.28C307.746 128.057 309.004 126.995 310.932 126.995C311.227 126.995 311.601 127.034 311.876 127.093V128.411C311.66 128.352 311.424 128.332 311.188 128.332ZM317.552 141.177C314.917 141.177 313.009 139.485 313.009 137.164C313.009 135.512 314.149 134.056 315.782 133.584C314.484 133.152 313.559 131.912 313.559 130.594C313.559 128.549 315.231 127.074 317.552 127.074C319.873 127.074 321.545 128.549 321.545 130.594C321.545 131.912 320.621 133.152 319.323 133.584C320.955 134.056 322.096 135.512 322.096 137.164C322.096 139.485 320.188 141.177 317.552 141.177ZM317.552 132.896C319.047 132.896 320.109 131.971 320.109 130.654C320.109 129.355 319.047 128.411 317.552 128.411C316.057 128.411 314.995 129.355 314.995 130.654C314.995 131.971 316.057 132.896 317.552 132.896ZM317.552 139.8C319.342 139.8 320.641 138.64 320.641 137.066C320.641 135.512 319.342 134.371 317.552 134.371C315.762 134.371 314.464 135.512 314.464 137.066C314.464 138.64 315.762 139.8 317.552 139.8ZM332.231 131.44H333.667V141H332.231V138.777C331.542 140.292 330.165 141.197 328.336 141.197C325.7 141.197 323.596 138.974 323.596 136.2C323.596 133.427 325.7 131.244 328.336 131.244C330.165 131.244 331.542 132.129 332.231 133.643V131.44ZM328.611 139.839C330.696 139.839 332.231 138.305 332.231 136.2C332.231 134.115 330.696 132.581 328.611 132.581C326.585 132.581 325.012 134.194 325.012 136.2C325.012 138.246 326.585 139.839 328.611 139.839ZM340.237 127.034C342.795 127.034 344.88 129.08 344.88 131.598C344.88 132.562 344.467 133.84 343.719 135.04L340.001 141H338.31L341.752 135.61C341.241 135.925 340.591 136.102 340.021 136.102C337.523 136.102 335.595 134.155 335.595 131.598C335.595 129.08 337.68 127.034 340.237 127.034ZM340.257 134.824C342.027 134.824 343.424 133.407 343.424 131.617C343.424 129.827 342.027 128.45 340.237 128.45C338.428 128.45 337.031 129.827 337.031 131.617C337.031 133.407 338.447 134.824 340.257 134.824ZM348.326 127.231V141H346.89V127.231H348.326ZM351.983 141.197C351.334 141.197 350.842 140.705 350.842 140.056C350.842 139.426 351.334 138.915 351.983 138.915C352.652 138.915 353.143 139.426 353.143 140.056C353.143 140.705 352.652 141.197 351.983 141.197ZM356.574 141.197C355.925 141.197 355.433 140.705 355.433 140.056C355.433 139.426 355.925 138.915 356.574 138.915C357.243 138.915 357.734 139.426 357.734 140.056C357.734 140.705 357.243 141.197 356.574 141.197ZM361.165 141.197C360.516 141.197 360.024 140.705 360.024 140.056C360.024 139.426 360.516 138.915 361.165 138.915C361.834 138.915 362.325 139.426 362.325 140.056C362.325 140.705 361.834 141.197 361.165 141.197ZM372.778 141H371.067L368.333 137.243L365.598 141H363.907L367.487 136.063L364.123 131.44H365.834L368.352 134.902L370.85 131.44H372.542L369.198 136.063L372.778 141ZM381.376 131.44H382.91L377.383 144.619H375.849L377.501 140.823L373.547 131.44H375.101L378.229 139.151L381.376 131.44ZM392.355 131.44H393.791V144.6H392.355V138.777C391.667 140.292 390.29 141.197 388.461 141.197C385.825 141.197 383.72 138.994 383.72 136.22C383.72 133.447 385.825 131.244 388.461 131.244C390.29 131.244 391.667 132.129 392.355 133.643V131.44ZM388.736 139.839C390.821 139.839 392.355 138.305 392.355 136.22C392.355 134.115 390.821 132.581 388.736 132.581C386.71 132.581 385.136 134.194 385.136 136.22C385.136 138.246 386.71 139.839 388.736 139.839ZM395.464 127.231H404.493V128.293L398.454 141H396.802L402.722 128.647H395.464V127.231ZM414.407 127.231H415.843V141H414.407V138.777C413.719 140.292 412.342 141.197 410.513 141.197C407.877 141.197 405.772 138.974 405.772 136.2C405.772 133.427 407.877 131.244 410.513 131.244C412.342 131.244 413.719 132.129 414.407 133.643V127.231ZM410.788 139.839C412.873 139.839 414.407 138.305 414.407 136.2C414.407 134.115 412.873 132.581 410.788 132.581C408.762 132.581 407.188 134.194 407.188 136.2C407.188 138.246 408.762 139.839 410.788 139.839ZM429.751 131.244C432.111 131.244 433.646 132.758 433.646 135.276V141H432.21V135.532C432.21 133.702 431.207 132.601 429.535 132.601C428.236 132.601 426.84 133.407 426.84 135.532V141H425.404V135.532C425.404 133.702 424.401 132.601 422.729 132.601C421.47 132.601 420.034 133.368 420.034 135.532V141H418.598V131.44H420.034V133.093C420.703 131.755 421.981 131.244 423.162 131.244C424.774 131.244 425.896 131.932 426.446 133.309C426.997 131.971 428.335 131.244 429.751 131.244Z" fill="#798088"/>
</g>
<circle cx="120.5" cy="129.5" r="15.5" fill="#FFF8C6"/>
<path d="M121 123.583L121 136.417" stroke="#DE8601" stroke-width="1.83333" stroke-linecap="round" stroke-linejoin="round"/>
<path d="M127.417 130L121 136.417L114.584 130" stroke="#DE8601" stroke-width="1.83333" stroke-linecap="round" stroke-linejoin="round"/>
<defs>
<filter id="filter0_d_111152_81" x="235.377" y="126.995" width="202.269" height="25.6245" filterUnits="userSpaceOnUse" color-interpolation-filters="sRGB">
<feFlood flood-opacity="0" result="BackgroundImageFix"/>
<feColorMatrix in="SourceAlpha" type="matrix" values="0 0 0 0 0 0 0 0 0 0 0 0 0 0 0 0 0 0 127 0" result="hardAlpha"/>
<feOffset dy="4"/>
<feGaussianBlur stdDeviation="2"/>
<feComposite in2="hardAlpha" operator="out"/>
<feColorMatrix type="matrix" values="0 0 0 0 0 0 0 0 0 0 0 0 0 0 0 0 0 0 0.25 0"/>
<feBlend mode="normal" in2="BackgroundImageFix" result="effect1_dropShadow_111152_81"/>
<feBlend mode="normal" in="SourceGraphic" in2="effect1_dropShadow_111152_81" result="shape"/>
</filter>
</defs>
</svg>
