<svg width="1356" height="429" viewBox="0 0 1356 429" fill="none" xmlns="http://www.w3.org/2000/svg">
<mask id="mask0_4_7552" style="mask-type:alpha" maskUnits="userSpaceOnUse" x="0" y="0" width="1356" height="429">
<rect width="1356" height="429" rx="100" fill="#FFEF88"/>
</mask>
<g mask="url(#mask0_4_7552)">
<g style="mix-blend-mode:color-dodge">
<rect opacity="0.1" width="431.603" height="613.784" rx="70.3701" transform="matrix(0.707107 -0.707107 -0.707107 -0.707107 440.176 383.093)" fill="url(#paint0_linear_4_7552)"/>
<rect opacity="0.2" width="431.603" height="613.784" rx="70.3701" transform="matrix(0.621973 -0.783039 -0.783039 -0.621973 617.643 405.036)" fill="url(#paint1_linear_4_7552)"/>
<rect opacity="0.3" width="431.603" height="613.784" rx="70.3701" transform="matrix(0.507559 -0.861617 -0.861617 -0.507559 817.899 373.202)" fill="url(#paint2_linear_4_7552)"/>
<rect opacity="0.4" width="431.603" height="1085.83" rx="70.3701" transform="matrix(0.378338 -0.925668 -0.925668 -0.378338 1030.45 344.512)" fill="url(#paint3_linear_4_7552)"/>
<rect opacity="0.5" width="431.603" height="1209.48" rx="70.3701" transform="matrix(0.260488 -0.965477 -0.965477 -0.260488 1199.26 183.107)" fill="url(#paint4_linear_4_7552)"/>
</g>
<g style="mix-blend-mode:color-dodge">
<rect opacity="0.1" width="431.603" height="613.784" rx="70.3701" transform="matrix(0.707107 -0.707107 -0.707107 -0.707107 440.176 383.093)" fill="url(#paint5_linear_4_7552)"/>
<rect opacity="0.2" width="431.603" height="613.784" rx="70.3701" transform="matrix(0.621973 -0.783039 -0.783039 -0.621973 617.643 405.036)" fill="url(#paint6_linear_4_7552)"/>
<rect opacity="0.3" width="431.603" height="613.784" rx="70.3701" transform="matrix(0.507559 -0.861617 -0.861617 -0.507559 817.899 373.202)" fill="url(#paint7_linear_4_7552)"/>
<rect opacity="0.4" width="431.603" height="1085.83" rx="70.3701" transform="matrix(0.378338 -0.925668 -0.925668 -0.378338 1030.45 344.512)" fill="url(#paint8_linear_4_7552)"/>
<rect opacity="0.5" width="431.603" height="1209.48" rx="70.3701" transform="matrix(0.260488 -0.965477 -0.965477 -0.260488 1199.26 183.107)" fill="url(#paint9_linear_4_7552)"/>
</g>
</g>
<defs>
<linearGradient id="paint0_linear_4_7552" x1="0" y1="306.892" x2="431.603" y2="306.892" gradientUnits="userSpaceOnUse">
<stop stop-color="#FF9B36"/>
<stop offset="0.5" stop-color="#EC6C00"/>
<stop offset="1" stop-color="#FC8704"/>
</linearGradient>
<linearGradient id="paint1_linear_4_7552" x1="0" y1="306.892" x2="431.603" y2="306.892" gradientUnits="userSpaceOnUse">
<stop stop-color="#FF9B36"/>
<stop offset="0.5" stop-color="#EC6C00"/>
<stop offset="1" stop-color="#FC8704"/>
</linearGradient>
<linearGradient id="paint2_linear_4_7552" x1="0" y1="306.892" x2="431.603" y2="306.892" gradientUnits="userSpaceOnUse">
<stop stop-color="#FF9B36"/>
<stop offset="0.5" stop-color="#EC6C00"/>
<stop offset="1" stop-color="#FC8704"/>
</linearGradient>
<linearGradient id="paint3_linear_4_7552" x1="0" y1="542.914" x2="431.603" y2="542.914" gradientUnits="userSpaceOnUse">
<stop stop-color="#FF9B36"/>
<stop offset="0.5" stop-color="#EC6C00"/>
<stop offset="1" stop-color="#FC8704"/>
</linearGradient>
<linearGradient id="paint4_linear_4_7552" x1="0" y1="604.74" x2="431.603" y2="604.74" gradientUnits="userSpaceOnUse">
<stop stop-color="#FF9B36"/>
<stop offset="0.5" stop-color="#EC6C00"/>
<stop offset="1" stop-color="#FC8704"/>
</linearGradient>
<linearGradient id="paint5_linear_4_7552" x1="0" y1="306.892" x2="431.603" y2="306.892" gradientUnits="userSpaceOnUse">
<stop stop-color="#FF9B36"/>
<stop offset="0.5" stop-color="#EC6C00"/>
<stop offset="1" stop-color="#FC8704"/>
</linearGradient>
<linearGradient id="paint6_linear_4_7552" x1="0" y1="306.892" x2="431.603" y2="306.892" gradientUnits="userSpaceOnUse">
<stop stop-color="#FF9B36"/>
<stop offset="0.5" stop-color="#EC6C00"/>
<stop offset="1" stop-color="#FC8704"/>
</linearGradient>
<linearGradient id="paint7_linear_4_7552" x1="0" y1="306.892" x2="431.603" y2="306.892" gradientUnits="userSpaceOnUse">
<stop stop-color="#FF9B36"/>
<stop offset="0.5" stop-color="#EC6C00"/>
<stop offset="1" stop-color="#FC8704"/>
</linearGradient>
<linearGradient id="paint8_linear_4_7552" x1="0" y1="542.914" x2="431.603" y2="542.914" gradientUnits="userSpaceOnUse">
<stop stop-color="#FF9B36"/>
<stop offset="0.5" stop-color="#EC6C00"/>
<stop offset="1" stop-color="#FC8704"/>
</linearGradient>
<linearGradient id="paint9_linear_4_7552" x1="0" y1="604.74" x2="431.603" y2="604.74" gradientUnits="userSpaceOnUse">
<stop stop-color="#FF9B36"/>
<stop offset="0.5" stop-color="#EC6C00"/>
<stop offset="1" stop-color="#FC8704"/>
</linearGradient>
</defs>
</svg>
