<svg width="59" height="58" viewBox="0 0 59 58" fill="none" xmlns="http://www.w3.org/2000/svg">
<path d="M22.4354 4.17299C24.5061 2.17149 26.2811 -0.0371504 29.4105 0.000474104C29.5507 0.00194173 29.6908 0.00787678 29.8306 0.0182836C29.9705 0.0286903 30.11 0.0435712 30.2488 0.0629171C30.3877 0.082263 30.5259 0.106009 30.6633 0.134161C30.8006 0.162313 30.937 0.194869 31.0724 0.231826C31.2077 0.268783 31.3416 0.310006 31.4742 0.355503C31.6069 0.400999 31.738 0.450697 31.8675 0.504599C31.9969 0.558501 32.1245 0.616543 32.2504 0.678717C32.376 0.740758 32.4997 0.806799 32.6212 0.876844C34.3155 1.86569 38.7266 6.57516 40.3895 8.23104C36.0225 8.20008 31.6555 8.19501 27.2885 8.21582C24.3154 8.20902 21.3172 8.10395 18.3479 8.21622C19.6982 6.85627 21.0607 5.50853 22.4354 4.17299Z" fill="#373B3E"/>
<path d="M40.3895 8.23105C42.333 7.45294 44.2985 7.29263 46.2604 8.13478C48.0493 8.90248 49.5401 10.373 50.259 12.1894C51.0379 14.1573 50.7939 15.9575 50.1009 17.9027C49.0458 19.2528 47.7349 20.4084 46.5113 21.602L42.1001 25.9706C42.1701 24.2877 42.4939 22.5966 42.4857 20.9169C42.4789 19.5154 41.9674 18.0673 40.9395 17.0872C38.8329 15.0787 35.1511 15.9837 32.5222 16.066C33.5547 14.6931 34.9488 13.4885 36.1668 12.2721C37.5399 10.901 38.8315 9.39621 40.3895 8.23105Z" fill="#373B3E"/>
<path d="M29.2903 19.8715C29.935 19.9223 30.4495 20.0047 31.0033 20.367C32.0291 21.0382 36.416 25.5029 37.2733 26.608C37.5902 27.0163 37.985 27.5797 38.0601 28.0984C38.1791 28.9206 37.9224 29.9152 37.4351 30.5836C36.8179 31.4302 31.6693 36.5851 30.8047 37.0997C30.3442 37.3737 29.8143 37.4425 29.2941 37.5155C28.5451 37.4269 28.0511 37.264 27.4405 36.8147C26.4611 36.0942 21.8715 31.5162 21.1753 30.5082C20.818 29.991 20.5505 29.3911 20.4738 28.7633C20.3663 27.8847 20.8979 27.0265 21.4288 26.3709C22.2402 25.3688 26.6418 20.9359 27.6163 20.3496C28.1648 20.0194 28.6697 19.9379 29.2903 19.8715Z" fill="#373B3E"/>
<path d="M8.73891 17.6724C8.58102 17.2167 8.46057 16.7512 8.37757 16.2759C8.29457 15.8007 8.25009 15.3219 8.24412 14.8396C8.22767 12.8809 9.07737 11.1136 10.4406 9.73226C11.7945 8.36037 13.578 7.70874 15.4907 7.71094C16.3594 7.71174 17.4643 7.83483 18.2329 8.26891C19.3794 8.91673 20.4643 10.261 21.4013 11.1936C23.0204 12.7997 24.631 14.4142 26.2333 16.0372C24.4813 16.0085 22.6607 15.5523 20.924 15.6953C19.5439 15.8092 18.2903 16.4242 17.4197 17.5109C15.5483 19.8473 16.242 22.8762 16.5632 25.5932C15.3622 24.4945 14.2615 23.2581 13.1093 22.1061C11.6748 20.6718 10.1434 19.2931 8.84447 17.7323C8.90147 20.7384 8.85604 23.7546 8.85698 26.7616C8.87234 30.9546 8.85249 35.1473 8.79744 39.3399C9.89612 37.7987 11.3886 36.5253 12.7351 35.2013C13.9719 33.9849 15.1679 32.7086 16.4669 31.5593C16.3878 33.0368 16.0002 34.5584 16.0909 36.034C16.1817 37.5146 16.7849 38.9379 17.9218 39.9157C20.2982 41.9593 23.2169 41.2456 26.0531 41.0209C23.6268 43.5843 21.0327 46.4104 18.4034 48.7483L40.1817 48.7631C40.1289 48.5407 33.3181 41.8904 32.4465 41.0457C34.0065 41.1908 35.6498 41.3933 37.2142 41.3392C38.7102 41.2874 40.1451 40.7635 41.1656 39.6285C43.2035 37.3623 42.2907 34.0745 42.105 31.3477C43.6554 32.7394 45.1116 34.2164 46.5783 35.695C47.7665 36.8928 48.9813 38.0655 50.0654 39.3602C49.847 35.6872 49.9833 31.9247 49.9751 28.2423C49.9675 24.8377 49.7858 21.2914 50.1006 17.9026C51.7047 19.4196 53.288 20.9579 54.8505 22.5176C55.9086 23.5641 57.1504 24.5761 57.9303 25.8558C57.9946 25.959 58.0553 26.0644 58.1124 26.1718C58.1695 26.2792 58.223 26.3884 58.2727 26.4996C58.3225 26.6106 58.3684 26.7232 58.4104 26.8374C58.4524 26.9516 58.4905 27.0671 58.5247 27.1838C58.5588 27.3006 58.589 27.4184 58.6152 27.5373C58.6413 27.656 58.6634 27.7755 58.6814 27.8959C58.6994 28.0162 58.7134 28.1371 58.7232 28.2583C58.733 28.3796 58.7386 28.5011 58.7402 28.6228C58.7771 31.0506 57.395 32.5181 55.7941 34.1109C53.8997 35.996 51.9098 37.827 50.1865 39.8725C50.7282 41.8992 50.6404 44.0622 49.5803 45.9122C48.6411 47.5513 47.0724 48.8475 45.2314 49.3194C43.1981 49.8404 42.102 49.3285 40.2006 48.8127C40.1797 48.8413 40.1599 48.8708 40.1381 48.8986C39.2223 50.0643 33.5937 55.6418 32.4617 56.3422C32.2703 56.4588 32.0727 56.564 31.8689 56.6576C31.6652 56.7513 31.4567 56.8327 31.2435 56.902C31.0303 56.9712 30.8138 57.0278 30.5941 57.0717C30.3742 57.1157 30.1525 57.1468 29.9291 57.1648C26.5194 57.4387 24.4881 54.792 22.3037 52.6378C20.9836 51.3362 19.6218 50.0413 18.1944 48.8588C16.7623 49.3591 15.2649 49.5328 13.7705 49.1994C11.994 48.8029 10.3193 47.5385 9.35835 46.0025C8.10623 44.0012 8.15257 41.8064 8.66592 39.5819C6.62843 37.313 4.22519 35.3291 2.12772 33.1043C0.827554 31.7252 -0.0887431 30.3377 0.0068392 28.3406C0.0486664 27.467 0.294146 26.5824 0.743759 25.8291C1.4822 24.5919 2.82331 23.5361 3.84076 22.5162C5.46163 20.8915 7.05729 19.2349 8.73891 17.6724Z" fill="#373B3E"/>
</svg>
