<svg width="48" height="48" viewBox="0 0 48 48" fill="none" xmlns="http://www.w3.org/2000/svg">
<path d="M43.08 30H34C32.9391 30 31.9217 30.4214 31.1716 31.1716C30.4214 31.9217 30 32.9391 30 34V43.08" stroke="#373B3E" stroke-width="3" stroke-linecap="round" stroke-linejoin="round"/>
<path d="M14 6.67993V9.99993C14 11.5912 14.6321 13.1174 15.7574 14.2426C16.8826 15.3678 18.4087 15.9999 20 15.9999C21.0609 15.9999 22.0783 16.4214 22.8284 17.1715C23.5786 17.9217 24 18.9391 24 19.9999C24 22.1999 25.8 23.9999 28 23.9999C29.0609 23.9999 30.0783 23.5785 30.8284 22.8284C31.5786 22.0782 32 21.0608 32 19.9999C32 17.7999 33.8 15.9999 36 15.9999H42.34" stroke="#373B3E" stroke-width="3" stroke-linecap="round" stroke-linejoin="round"/>
<path d="M22.0004 43.8999V35.9999C22.0004 34.939 21.579 33.9216 20.8288 33.1715C20.0787 32.4213 19.0613 31.9999 18.0004 31.9999C16.9395 31.9999 15.9221 31.5784 15.172 30.8283C14.4218 30.0782 14.0004 29.0607 14.0004 27.9999V25.9999C14.0004 24.939 13.579 23.9216 12.8288 23.1715C12.0787 22.4213 11.0613 21.9999 10.0004 21.9999H4.1004" stroke="#373B3E" stroke-width="3" stroke-linecap="round" stroke-linejoin="round"/>
<path d="M24 44C35.0457 44 44 35.0457 44 24C44 12.9543 35.0457 4 24 4C12.9543 4 4 12.9543 4 24C4 35.0457 12.9543 44 24 44Z" stroke="#373B3E" stroke-width="3" stroke-linecap="round" stroke-linejoin="round"/>
</svg>
