<svg width="22" height="22" viewBox="0 0 22 22" fill="none" xmlns="http://www.w3.org/2000/svg">
<path d="M8.93743 14.4998C8.84815 14.1537 8.66777 13.8379 8.41505 13.5851C8.16232 13.3324 7.8465 13.152 7.50043 13.0628L1.36543 11.4808C1.26076 11.4511 1.16864 11.388 1.10304 11.3012C1.03744 11.2144 1.00195 11.1086 1.00195 10.9998C1.00195 10.891 1.03744 10.7851 1.10304 10.6983C1.16864 10.6115 1.26076 10.5485 1.36543 10.5188L7.50043 8.93576C7.84638 8.84657 8.16212 8.66633 8.41483 8.4138C8.66754 8.16127 8.84799 7.84565 8.93743 7.49976L10.5194 1.36476C10.5488 1.25968 10.6118 1.1671 10.6987 1.10116C10.7857 1.03521 10.8918 0.999512 11.0009 0.999512C11.11 0.999512 11.2162 1.03521 11.3031 1.10116C11.39 1.1671 11.453 1.25968 11.4824 1.36476L13.0634 7.49976C13.1527 7.84583 13.3331 8.16166 13.5858 8.41438C13.8385 8.6671 14.1544 8.84748 14.5004 8.93676L20.6354 10.5178C20.7409 10.5469 20.834 10.6098 20.9003 10.6968C20.9666 10.7839 21.0025 10.8903 21.0025 10.9998C21.0025 11.1092 20.9666 11.2156 20.9003 11.3027C20.834 11.3898 20.7409 11.4527 20.6354 11.4818L14.5004 13.0628C14.1544 13.152 13.8385 13.3324 13.5858 13.5851C13.3331 13.8379 13.1527 14.1537 13.0634 14.4998L11.4814 20.6348C11.452 20.7398 11.389 20.8324 11.3021 20.8984C11.2152 20.9643 11.109 21 10.9999 21C10.8908 21 10.7847 20.9643 10.6977 20.8984C10.6108 20.8324 10.5478 20.7398 10.5184 20.6348L8.93743 14.4998Z" stroke="#373B3E" stroke-width="2" stroke-linecap="round" stroke-linejoin="round"/>
</svg>
