<svg width="19" height="19" viewBox="0 0 19 19" fill="none" xmlns="http://www.w3.org/2000/svg">
<path d="M17.5856 0.467367H1.52531C1.25529 0.467367 1.02343 0.564222 0.829719 0.757933C0.636009 0.951641 0.539154 1.18938 0.539154 1.47114V17.5138C0.539154 17.7839 0.636009 18.0157 0.829719 18.2094C1.02343 18.4031 1.25529 18.5 1.52531 18.5H10.1718V11.5264H7.81208V8.79689H10.1718V6.78935C10.1718 5.6271 10.4947 4.73779 11.1404 4.12144C11.7861 3.50509 12.6313 3.19692 13.6762 3.19692C14.1693 3.19692 14.6095 3.21159 14.997 3.24094C15.3844 3.27029 15.6427 3.29084 15.7718 3.30258V5.73275H14.3278C13.7643 5.73275 13.4003 5.85602 13.236 6.10256C13.0716 6.3491 12.9894 6.67196 12.9894 7.07111V8.79689H15.6661L15.3315 11.5264H12.9894V18.5H17.568C17.8498 18.5 18.0875 18.4031 18.2812 18.2094C18.4749 18.0157 18.5718 17.7839 18.5718 17.5138V1.47114C18.5718 1.18938 18.4749 0.951641 18.2812 0.757933C18.0875 0.564222 17.8556 0.467367 17.5856 0.467367Z" fill="#373B3E"/>
</svg>
