<svg width="19" height="19" viewBox="0 0 19 19" fill="none" xmlns="http://www.w3.org/2000/svg">
<path d="M9.44215 0.467367C8.22119 0.467367 7.417 0.473238 7.02958 0.484978C6.64216 0.496717 6.20778 0.508457 5.72644 0.520197C5.2451 0.543676 4.83127 0.593573 4.48494 0.669882C4.13861 0.746193 3.82457 0.837177 3.54281 0.942837C3.23757 1.06024 2.95581 1.20112 2.69753 1.36548C2.43925 1.52984 2.18684 1.73529 1.9403 1.98183C1.69376 2.24011 1.48831 2.49839 1.32395 2.75667C1.15959 3.01495 1.01871 3.29084 0.901306 3.58434C0.783906 3.8661 0.689986 4.18014 0.619546 4.52647C0.549107 4.8728 0.502147 5.28664 0.478667 5.76797C0.455187 6.24932 0.440512 6.68369 0.434642 7.07111C0.428772 7.45853 0.425837 8.26272 0.425837 9.48368C0.425837 10.7164 0.428772 11.5235 0.434642 11.9051C0.440512 12.2866 0.455187 12.7181 0.478667 13.1994C0.502147 13.6807 0.549107 14.0946 0.619546 14.4409C0.689986 14.7872 0.783906 15.1071 0.901306 15.4006C1.01871 15.6941 1.15959 15.97 1.32395 16.2283C1.48831 16.4866 1.69376 16.739 1.9403 16.9855C2.18684 17.2438 2.43925 17.4551 2.69753 17.6195C2.95581 17.7839 3.23757 17.9189 3.54281 18.0245C3.82457 18.1419 4.13861 18.2359 4.48494 18.3063C4.83127 18.3767 5.2451 18.4237 5.72644 18.4472C6.20778 18.4707 6.64216 18.4853 7.02958 18.4912C7.417 18.4971 8.22119 18.5 9.44215 18.5C10.6631 18.5 11.4673 18.4971 11.8547 18.4912C12.2421 18.4853 12.6765 18.4707 13.1579 18.4472C13.6392 18.4237 14.053 18.3767 14.3994 18.3063C14.7457 18.2359 15.0597 18.1419 15.3415 18.0245C15.6467 17.9189 15.9285 17.7839 16.1868 17.6195C16.4451 17.4551 16.6975 17.2438 16.944 16.9855C17.1905 16.739 17.396 16.4866 17.5604 16.2283C17.7247 15.97 17.8656 15.6941 17.983 15.4006C18.1004 15.1071 18.1943 14.7872 18.2648 14.4409C18.3352 14.0946 18.3822 13.6807 18.4056 13.1994C18.4291 12.7181 18.4438 12.2866 18.4497 11.9051C18.4555 11.5235 18.4585 10.7164 18.4585 9.48368C18.4585 8.26272 18.4555 7.45853 18.4497 7.07111C18.4438 6.68369 18.4291 6.24932 18.4056 5.76797C18.3822 5.28664 18.3352 4.8728 18.2648 4.52647C18.1943 4.18014 18.1004 3.8661 17.983 3.58434C17.8656 3.29084 17.7247 3.01495 17.5604 2.75667C17.396 2.49839 17.1905 2.24011 16.944 1.98183C16.6975 1.73529 16.4451 1.52984 16.1868 1.36548C15.9285 1.20112 15.6467 1.06024 15.3415 0.942837C15.0597 0.837177 14.7457 0.746193 14.3994 0.669882C14.053 0.593573 13.6392 0.543676 13.1579 0.520197C12.6765 0.496717 12.2421 0.482042 11.8547 0.476171C11.4673 0.470303 10.6631 0.467367 9.44215 0.467367ZM9.44215 2.08749C10.6396 2.08749 11.4262 2.09336 11.8019 2.1051C12.1776 2.11684 12.6061 2.13445 13.0874 2.15793C13.5218 2.16967 13.8681 2.20782 14.1264 2.27239C14.3847 2.33696 14.596 2.3986 14.7604 2.4573C14.9717 2.53948 15.1566 2.6334 15.3151 2.73906C15.4736 2.84472 15.635 2.97386 15.7994 3.12648C15.952 3.29084 16.0811 3.45226 16.1868 3.61075C16.2924 3.76924 16.3864 3.95415 16.4685 4.16547C16.5272 4.32983 16.5889 4.54115 16.6534 4.79943C16.718 5.0577 16.762 5.40404 16.7855 5.83842C16.809 6.31975 16.8237 6.74826 16.8295 7.12394C16.8354 7.49962 16.8384 8.2862 16.8384 9.48368C16.8384 10.6929 16.8325 11.4854 16.8207 11.861C16.809 12.2367 16.7973 12.6594 16.7855 13.129C16.762 13.5751 16.718 13.9273 16.6534 14.1856C16.5889 14.4438 16.5272 14.6493 16.4685 14.8019C16.3746 15.0132 16.2778 15.2011 16.178 15.3654C16.0782 15.5298 15.9461 15.6883 15.7818 15.8409C15.6291 16.0053 15.4706 16.1403 15.3063 16.2459C15.1419 16.3516 14.9541 16.4396 14.7428 16.5101C14.5901 16.5805 14.3818 16.6451 14.1176 16.7038C13.8535 16.7625 13.5042 16.8036 13.0698 16.8271C12.5885 16.8505 12.16 16.8652 11.7843 16.8711C11.4086 16.8769 10.622 16.8799 9.42454 16.8799C8.21532 16.8799 7.42287 16.8769 7.04719 16.8711C6.67151 16.8652 6.243 16.8505 5.76166 16.8271C5.32728 16.8036 4.97802 16.7595 4.71387 16.695C4.44972 16.6304 4.24134 16.5688 4.08872 16.5101C3.8774 16.4279 3.69249 16.334 3.534 16.2283C3.37551 16.1227 3.21409 15.9935 3.04973 15.8409C2.89711 15.6765 2.76503 15.5151 2.6535 15.3566C2.54197 15.1981 2.45099 15.0132 2.38055 14.8019C2.31011 14.6375 2.24554 14.4262 2.18684 14.1679C2.12814 13.9097 2.08705 13.5575 2.06357 13.1113C2.04009 12.6417 2.02541 12.2191 2.01954 11.8434C2.01367 11.4677 2.01074 10.6812 2.01074 9.48368C2.01074 8.27446 2.01367 7.48201 2.01954 7.10633C2.02541 6.73065 2.04009 6.30215 2.06357 5.8208C2.08705 5.38643 2.12814 5.03716 2.18684 4.77301C2.24554 4.50886 2.31011 4.30048 2.38055 4.14786C2.45099 3.93654 2.54197 3.75163 2.6535 3.59314C2.76503 3.43465 2.89711 3.27323 3.04973 3.10887C3.21409 2.95625 3.37551 2.82417 3.534 2.71264C3.69249 2.60111 3.8774 2.51013 4.08872 2.43969C4.24134 2.36925 4.44678 2.30468 4.70506 2.24598C4.96334 2.18728 5.31554 2.14619 5.76166 2.12271C6.243 2.09923 6.66858 2.08455 7.03839 2.07868C7.4082 2.07281 8.19771 2.06988 9.40693 2.06988L9.44215 2.08749ZM9.44215 4.85226C8.80819 4.85226 8.20945 4.97552 7.64593 5.22206C7.08241 5.46861 6.58933 5.80026 6.16669 6.21703C5.74405 6.6338 5.41533 7.12394 5.18053 7.68746C4.93399 8.25098 4.81072 8.84972 4.81072 9.48368C4.81072 10.1294 4.93399 10.734 5.18053 11.2975C5.41533 11.861 5.74405 12.3512 6.16669 12.7679C6.58933 13.1847 7.08241 13.5164 7.64593 13.7629C8.20945 13.9977 8.80819 14.1151 9.44215 14.1151C10.0761 14.1151 10.6749 13.9977 11.2384 13.7629C11.8019 13.5164 12.295 13.1847 12.7176 12.7679C13.1403 12.3512 13.469 11.861 13.7038 11.2975C13.9503 10.734 14.0736 10.1294 14.0736 9.48368C14.0736 8.84972 13.9503 8.25098 13.7038 7.68746C13.469 7.12394 13.1403 6.6338 12.7176 6.21703C12.295 5.80026 11.8019 5.46861 11.2384 5.22206C10.6749 4.97552 10.0761 4.85226 9.44215 4.85226ZM9.44215 12.495C8.60861 12.495 7.89834 12.2015 7.31134 11.6145C6.72434 11.0275 6.43084 10.3172 6.43084 9.48368C6.43084 8.66188 6.72434 7.95748 7.31134 7.37048C7.89834 6.78348 8.60861 6.48998 9.44215 6.48998C10.2757 6.48998 10.986 6.78348 11.573 7.37048C12.16 7.95748 12.4535 8.66188 12.4535 9.48368C12.4535 10.3172 12.16 11.0275 11.573 11.6145C10.986 12.2015 10.2757 12.495 9.44215 12.495ZM15.3415 4.67616C15.3415 4.96966 15.2358 5.22206 15.0245 5.43338C14.8132 5.6447 14.5549 5.75037 14.2497 5.75037C13.9562 5.75037 13.7038 5.6447 13.4925 5.43338C13.2811 5.22206 13.1755 4.96966 13.1755 4.67616C13.1755 4.38266 13.2811 4.13025 13.4925 3.91893C13.7038 3.70761 13.9562 3.60195 14.2497 3.60195C14.5549 3.60195 14.8132 3.70761 15.0245 3.91893C15.2358 4.13025 15.3415 4.38266 15.3415 4.67616Z" fill="#373B3E"/>
</svg>
