<svg width="28" height="28" viewBox="0 0 28 28" fill="none" xmlns="http://www.w3.org/2000/svg">
<path d="M16.9528 14.5472L7.72216 23.7767C7.25803 24.2408 6.62853 24.5016 5.97216 24.5016C5.31578 24.5016 4.68629 24.2408 4.22216 23.7767C3.75803 23.3126 3.49728 22.6831 3.49728 22.0267C3.49728 21.3703 3.75803 20.7408 4.22216 20.2767L13.4528 11.046" stroke="#FAB005" stroke-width="2.33333" stroke-linecap="round" stroke-linejoin="round"/>
<path d="M18.3003 5.033C16.539 3.93574 14.5637 3.22702 12.5065 2.95421C10.4494 2.6814 8.35764 2.85077 6.37116 3.451C6.19431 3.56359 6.05107 3.72174 5.95649 3.90884C5.86191 4.09594 5.8195 4.30506 5.83371 4.51422C5.84791 4.72338 5.91822 4.92485 6.03722 5.09744C6.15623 5.27003 6.31955 5.40737 6.50999 5.495C9.16696 6.40247 11.657 7.73973 13.881 9.4535" stroke="#FAB005" stroke-width="2.33333" stroke-linecap="round" stroke-linejoin="round"/>
<path d="M20.65 4.31665C20.4319 4.10289 20.1387 3.98315 19.8333 3.98315C19.528 3.98315 19.2347 4.10289 19.0167 4.31665L13.65 9.68332C13.4362 9.9014 13.3165 10.1946 13.3165 10.5C13.3165 10.8054 13.4362 11.0986 13.65 11.3167L16.6833 14.35C16.9014 14.5638 17.1946 14.6835 17.5 14.6835C17.8054 14.6835 18.0986 14.5638 18.3167 14.35L23.6833 8.98332C23.8971 8.76524 24.0168 8.47203 24.0168 8.16665C24.0168 7.86128 23.8971 7.56807 23.6833 7.34999L20.65 4.31665Z" stroke="#FAB005" stroke-width="2.33333" stroke-linecap="round" stroke-linejoin="round"/>
<path d="M22.967 9.69971C24.0642 11.4611 24.7729 13.4364 25.0457 15.4935C25.3185 17.5507 25.1492 19.6424 24.549 21.6289C24.4363 21.8054 24.2782 21.9484 24.0913 22.0428C23.9043 22.1372 23.6954 22.1795 23.4864 22.1653C23.2775 22.1511 23.0762 22.0809 22.9037 21.9621C22.7312 21.8433 22.5939 21.6802 22.5062 21.49C21.5988 18.8327 20.2616 16.3422 18.5477 14.1179" stroke="#FAB005" stroke-width="2.33333" stroke-linecap="round" stroke-linejoin="round"/>
</svg>
