<svg width="20" height="19" viewBox="0 0 20 19" fill="none" xmlns="http://www.w3.org/2000/svg">
<g clip-path="url(#clip0_4_8021)">
<path d="M10.0182 0.467367C8.77376 0.467367 7.60563 0.708036 6.51381 1.18938C5.41025 1.65898 4.45344 2.30174 3.64338 3.11767C2.83332 3.9336 2.18762 4.88748 1.70628 5.97929C1.23668 7.07111 1.00188 8.23924 1.00188 9.48368C1.00188 10.4346 1.14276 11.3445 1.42452 12.2132C1.70628 13.082 2.09957 13.8803 2.60439 14.6082C3.10921 15.3361 3.71382 15.9818 4.41822 16.5453C5.12262 17.0971 5.89159 17.5373 6.72513 17.866C6.68991 17.5138 6.66349 17.0912 6.64588 16.5981C6.62827 16.105 6.66643 15.6648 6.76035 15.2774C6.80731 15.1013 6.88362 14.7726 6.98928 14.2912C7.10668 13.7981 7.22701 13.2933 7.35028 12.7768C7.47355 12.2602 7.58215 11.8023 7.67607 11.4032C7.76999 11.004 7.81695 10.8044 7.81695 10.8044C7.81695 10.8044 7.77292 10.6812 7.68487 10.4346C7.59682 10.1881 7.5528 9.86523 7.5528 9.46607C7.5528 8.84385 7.71129 8.32436 8.02826 7.90759C8.34524 7.49082 8.72679 7.28243 9.17291 7.28243C9.56033 7.28243 9.84796 7.40864 10.0358 7.66105C10.2236 7.91346 10.3176 8.20989 10.3176 8.55035C10.3176 8.93777 10.2236 9.4015 10.0358 9.94154C9.84796 10.4816 9.69534 11.0158 9.57794 11.5441C9.47228 11.9902 9.5574 12.3747 9.83329 12.6975C10.1092 13.0204 10.4643 13.1818 10.8987 13.1818C11.697 13.1818 12.3691 12.7973 12.915 12.0283C13.4609 11.2594 13.7339 10.2703 13.7339 9.06104C13.7339 8.521 13.64 8.02792 13.4521 7.5818C13.276 7.12394 13.0207 6.73359 12.6861 6.41074C12.3515 6.08789 11.9553 5.83842 11.4974 5.66232C11.0396 5.48622 10.5289 5.39816 9.96536 5.39816C9.3314 5.39816 8.76201 5.5097 8.25719 5.73275C7.75238 5.94407 7.3268 6.23464 6.98047 6.60445C6.63414 6.97426 6.36706 7.38809 6.17922 7.84595C6.00312 8.31555 5.91507 8.80276 5.91507 9.30758C5.91507 9.695 5.97964 10.0766 6.10878 10.4522C6.23792 10.8279 6.39641 11.1332 6.58425 11.368C6.61947 11.4032 6.64001 11.4413 6.64588 11.4824C6.65175 11.5235 6.64882 11.5675 6.63708 11.6145C6.60186 11.7554 6.5549 11.9461 6.4962 12.1868C6.4375 12.4275 6.40228 12.5772 6.39054 12.6359C6.36706 12.7298 6.33184 12.7856 6.28488 12.8032C6.23792 12.8208 6.17335 12.8061 6.09117 12.7591C5.52765 12.5009 5.08153 12.0225 4.75281 11.3239C4.42409 10.6254 4.25973 9.94154 4.25973 9.27236C4.25973 8.56796 4.38887 7.88704 4.64715 7.2296C4.90543 6.57216 5.28404 5.99103 5.78299 5.48622C6.28194 4.9814 6.90123 4.58224 7.64085 4.28874C8.38047 3.9835 9.23748 3.83088 10.2119 3.83088C10.9985 3.83088 11.7264 3.96002 12.3955 4.2183C13.0765 4.48832 13.6664 4.85519 14.1653 5.31892C14.6643 5.78265 15.0547 6.3315 15.3364 6.96546C15.6182 7.59941 15.7591 8.2862 15.7591 9.02582C15.7591 9.80066 15.6475 10.5285 15.4245 11.2095C15.1897 11.8904 14.8639 12.4862 14.4471 12.9969C14.0303 13.5076 13.5343 13.9097 12.9591 14.2032C12.3838 14.4967 11.7557 14.6434 11.0748 14.6434C10.6287 14.6434 10.2119 14.5407 9.82448 14.3352C9.43706 14.1298 9.16704 13.8862 9.01442 13.6044L8.4509 15.7352C8.34524 16.1344 8.17795 16.5541 7.94902 16.9943C7.72009 17.4346 7.51171 17.8073 7.32387 18.1126C7.74651 18.2417 8.18089 18.3386 8.62701 18.4031C9.07312 18.4677 9.52511 18.5 9.98297 18.5C11.2274 18.5 12.3955 18.2652 13.4874 17.7956C14.5792 17.326 15.5331 16.6832 16.349 15.8673C17.1649 15.0514 17.8077 14.0975 18.2773 13.0057C18.7586 11.9139 18.9993 10.7457 18.9993 9.50129C18.9993 8.25685 18.7586 7.08872 18.2773 5.99691C17.8077 4.90509 17.1649 3.95121 16.349 3.13528C15.5331 2.31935 14.5792 1.67659 13.4874 1.20699C12.3955 0.725647 11.2274 0.484978 9.98297 0.484978L10.0182 0.467367Z" fill="#373B3E"/>
</g>
<defs>
<clipPath id="clip0_4_8021">
<rect width="18.0326" height="18.0326" fill="white" transform="matrix(1 0 0 -1 0.984375 18.1299)"/>
</clipPath>
</defs>
</svg>
