<svg width="22" height="20" viewBox="0 0 22 20" fill="none" xmlns="http://www.w3.org/2000/svg">
<path d="M10.0526 5.8154L10.8042 2.27941C11.0339 1.19898 12.0959 0.509289 13.1764 0.738939L16.3725 1.4183C16.8351 0.905459 17.5509 0.646439 18.275 0.800349C19.3554 1.03 20.0451 2.09204 19.8155 3.17247C19.5858 4.2529 18.5238 4.94259 17.4434 4.71294C16.7193 4.55903 16.1707 4.03124 15.9567 3.3746L12.7605 2.69523L12.0943 5.82978C13.8789 5.96683 15.6522 6.56079 17.2581 7.52961C18.0892 7.06763 19.0992 6.99337 20.007 7.36091C21.1731 7.833 21.9531 8.9459 21.9991 10.2031L21.9996 10.2241C22.0151 11.2277 21.559 12.1657 20.792 12.7742C20.7899 12.8178 20.7871 12.859 20.7836 12.8971C20.7836 16.8949 16.3341 19.9267 10.9852 19.9267C5.65232 19.9267 1.27693 16.9027 1.27987 12.9738C1.27523 12.9134 1.27162 12.853 1.26905 12.7926C0.467009 12.1873 -0.0152785 11.2277 0.000369507 10.1962C0.0195495 8.9317 0.783409 7.79777 1.94804 7.30491C2.85909 6.91936 3.881 6.98299 4.72371 7.44381C6.3578 6.46653 8.15777 5.91241 10.0526 5.8154ZM19.3385 11.341C19.7466 11.1382 20.003 10.7207 20.0001 10.2656C19.9789 9.8005 19.6887 9.3897 19.2565 9.2147C18.821 9.0384 18.3226 9.1343 17.9837 9.4597L17.3991 10.0207L16.729 9.5652C15.1137 8.4672 13.2771 7.8397 11.4995 7.80134L10.493 7.80123C8.61791 7.8295 6.84136 8.4002 5.25552 9.4757L4.59246 9.9254L4.00897 9.3764C3.66501 9.0528 3.16243 8.9627 2.7275 9.1468C2.29257 9.3308 2.0073 9.7543 2 10.2265C1.99298 10.6987 2.26526 11.1307 2.69441 11.3278L3.32738 11.6186L3.27399 12.3132C3.261 12.482 3.261 12.6516 3.27693 12.8971C3.27693 15.6071 6.63313 17.9267 10.9852 17.9267C15.3561 17.9267 18.7836 15.5913 18.7865 12.8205C18.7995 12.6516 18.7995 12.482 18.7865 12.3132L18.7348 11.6411L19.3385 11.341ZM5.95075 11.4999C5.95075 10.6715 6.62232 9.9999 7.45075 9.9999C8.27918 9.9999 8.95075 10.6715 8.95075 11.4999C8.95075 12.3283 8.27918 12.9999 7.45075 12.9999C7.05292 12.9999 6.67139 12.8419 6.39009 12.5606C6.10878 12.2793 5.95075 11.8977 5.95075 11.4999ZM12.9507 11.4999C12.9507 10.6715 13.6223 9.9999 14.4507 9.9999C15.2792 9.9999 15.9507 10.6715 15.9507 11.4999C15.9507 12.3283 15.2792 12.9999 14.4507 12.9999C14.0529 12.9999 13.6714 12.8419 13.3901 12.5606C13.1088 12.2793 12.9507 11.8977 12.9507 11.4999ZM10.9665 16.6028C9.5693 16.6028 8.19993 16.2329 7.08503 15.3928C6.94659 15.2241 6.95868 14.9779 7.11299 14.8236C7.2673 14.6693 7.51349 14.6572 7.68218 14.7956C8.62697 15.4886 9.805 15.7856 10.9507 15.7856C12.0965 15.7856 13.2813 15.5112 14.235 14.8271C14.3473 14.7176 14.5095 14.6763 14.6604 14.7188C14.8114 14.7613 14.9282 14.8811 14.9669 15.0331C15.0055 15.1851 14.9517 15.3346 14.8479 15.4556C14.1638 16.2531 12.3636 16.6028 10.9665 16.6028Z" fill="black"/>
</svg>
