<svg width="35" height="34" viewBox="0 0 35 34" fill="none" xmlns="http://www.w3.org/2000/svg">
<path d="M13.281 2.47029C14.5068 1.28546 15.5575 -0.021992 17.4101 0.000280656C17.4931 0.00114945 17.576 0.00466283 17.6588 0.0108234C17.7416 0.0169839 17.8241 0.0257929 17.9064 0.0372452C17.9886 0.0486974 18.0704 0.0627546 18.1517 0.0794196C18.233 0.0960846 18.3137 0.115357 18.3939 0.137234C18.474 0.159112 18.5533 0.183515 18.6318 0.210448C18.7103 0.23738 18.7879 0.2668 18.8646 0.298708C18.9412 0.330617 19.0167 0.364976 19.0912 0.401782C19.1656 0.438508 19.2388 0.477602 19.3107 0.519067C20.3137 1.10444 22.9249 3.89231 23.9093 4.87254C21.3242 4.85422 18.7391 4.85122 16.1539 4.86354C14.3939 4.85951 12.6191 4.79731 10.8613 4.86377C11.6607 4.05872 12.4672 3.26089 13.281 2.47029Z" fill="#B85F05"/>
<path d="M23.9102 4.87284C25.0606 4.41222 26.2242 4.31732 27.3855 4.81585C28.4445 5.27031 29.327 6.14084 29.7526 7.21608C30.2137 8.38102 30.0693 9.44667 29.659 10.5982C29.0344 11.3974 28.2584 12.0815 27.5341 12.788L24.9227 15.3742C24.9642 14.3779 25.1559 13.3768 25.151 12.3825C25.147 11.5529 24.8442 10.6956 24.2357 10.1154C22.9887 8.92646 20.8092 9.46219 19.2529 9.51088C19.8641 8.69816 20.6894 7.98508 21.4104 7.26501C22.2232 6.45336 22.9879 5.56258 23.9102 4.87284Z" fill="#B85F05"/>
<path d="M17.3387 11.7637C17.7203 11.7938 18.0249 11.8426 18.3527 12.057C18.96 12.4544 21.5569 15.0973 22.0645 15.7515C22.252 15.9932 22.4857 16.3267 22.5302 16.6338C22.6007 17.1205 22.4487 17.7093 22.1602 18.105C21.7948 18.6061 18.747 21.6577 18.2352 21.9623C17.9626 22.1245 17.6489 22.1652 17.341 22.2085C16.8976 22.156 16.6052 22.0596 16.2437 21.7936C15.6639 21.3671 12.947 18.6571 12.5348 18.0603C12.3234 17.7542 12.165 17.399 12.1196 17.0274C12.056 16.5073 12.3706 15.9993 12.6849 15.6112C13.1652 15.018 15.7709 12.3938 16.3477 12.0467C16.6725 11.8512 16.9714 11.803 17.3387 11.7637Z" fill="#B85F05"/>
<path d="M5.17319 10.4619C5.07972 10.1921 5.00842 9.91649 4.95929 9.63516C4.91015 9.35383 4.88382 9.07041 4.88029 8.78489C4.87055 7.62541 5.37355 6.57918 6.18053 5.76149C6.98199 4.94937 8.03781 4.56363 9.17004 4.56493C9.68433 4.5654 10.3384 4.63827 10.7933 4.89523C11.4721 5.27872 12.1143 6.0745 12.669 6.62657C13.6274 7.57735 14.5809 8.5331 15.5294 9.49382C14.4923 9.47688 13.4145 9.20677 12.3864 9.29147C11.5694 9.35889 10.8273 9.72295 10.312 10.3662C9.20416 11.7493 9.61478 13.5424 9.80493 15.1507C9.09398 14.5003 8.44239 13.7684 7.76035 13.0865C6.91114 12.2374 6.0046 11.4212 5.23568 10.4973C5.26942 12.2768 5.24253 14.0623 5.24309 15.8424C5.25218 18.3245 5.24043 20.8065 5.20784 23.2884C5.85823 22.3761 6.74173 21.6222 7.53881 20.8384C8.27096 20.1184 8.97895 19.3629 9.74794 18.6825C9.70115 19.5572 9.47167 20.4579 9.52534 21.3314C9.57912 22.2078 9.9362 23.0504 10.6092 23.6293C12.016 24.839 13.7438 24.4165 15.4227 24.2835C13.9864 25.801 12.4508 27.4739 10.8943 28.8579L23.7865 28.8667C23.7552 28.735 19.7234 24.7982 19.2074 24.2981C20.1309 24.384 21.1037 24.5039 22.0298 24.4719C22.9153 24.4413 23.7648 24.1311 24.3689 23.4593C25.5753 22.1177 25.0349 20.1714 24.925 18.5573C25.8428 19.3811 26.7048 20.2554 27.5731 21.1307C28.2764 21.8398 28.9955 22.534 29.6373 23.3004C29.5081 21.1261 29.5887 18.8988 29.5839 16.7189C29.5794 14.7035 29.4718 12.6042 29.6582 10.5981C30.6077 11.4961 31.545 12.4068 32.47 13.3301C33.0963 13.9495 33.8314 14.5486 34.2931 15.3062C34.3312 15.3673 34.3671 15.4296 34.4009 15.4932C34.4347 15.5568 34.4664 15.6215 34.4958 15.6873C34.5253 15.753 34.5525 15.8197 34.5773 15.8873C34.6022 15.9549 34.6248 16.0232 34.645 16.0923C34.6652 16.1614 34.6831 16.2312 34.6985 16.3016C34.714 16.3718 34.7271 16.4426 34.7377 16.5139C34.7484 16.5851 34.7567 16.6566 34.7625 16.7284C34.7683 16.8002 34.7716 16.8721 34.7726 16.9441C34.7944 18.3813 33.9762 19.2501 33.0286 20.193C31.9071 21.3089 30.7291 22.3928 29.709 23.6037C30.0297 24.8034 29.9777 26.0839 29.3501 27.179C28.7941 28.1493 27.8656 28.9166 26.7757 29.196C25.5721 29.5044 24.9232 29.2013 23.7976 28.896C23.7853 28.913 23.7736 28.9304 23.7606 28.9469C23.2185 29.637 19.8865 32.9386 19.2164 33.3533C19.1031 33.4223 18.9861 33.4846 18.8655 33.54C18.7449 33.5954 18.6215 33.6437 18.4953 33.6847C18.3691 33.7256 18.2409 33.7591 18.1109 33.7851C17.9807 33.8112 17.8495 33.8295 17.7172 33.8402C15.6988 34.0024 14.4963 32.4356 13.2032 31.1604C12.4217 30.3898 11.6155 29.6233 10.7706 28.9233C9.92281 29.2195 9.0364 29.3223 8.15178 29.1249C7.10011 28.8902 6.10874 28.1417 5.53988 27.2325C4.79866 26.0477 4.82609 24.7485 5.12998 23.4317C3.92385 22.0885 2.50119 20.9141 1.25955 19.5971C0.489889 18.7807 -0.0525334 17.9593 0.00404861 16.7771C0.0288092 16.26 0.174126 15.7363 0.440284 15.2904C0.877421 14.558 1.67132 13.933 2.27362 13.3292C3.23313 12.3675 4.17772 11.3868 5.17319 10.4619Z" fill="#B85F05"/>
</svg>
