<svg width="32" height="32" viewBox="0 0 32 32" fill="none" xmlns="http://www.w3.org/2000/svg">
<path d="M6 10.6666L20.1067 3.91997C20.2666 3.84343 20.4402 3.79955 20.6172 3.7909C20.7943 3.78224 20.9713 3.80899 21.138 3.86958C21.3046 3.93017 21.4574 4.02338 21.5876 4.14375C21.7178 4.26413 21.8226 4.40925 21.896 4.57063L24.6667 10.6666" stroke="#FAB005" stroke-width="2.66667" stroke-linecap="round" stroke-linejoin="round"/>
<path d="M8 13.3334V10.6667" stroke="#FAB005" stroke-width="2.66667" stroke-linecap="round" stroke-linejoin="round"/>
<path d="M8 18.6667V20.0001" stroke="#FAB005" stroke-width="2.66667" stroke-linecap="round" stroke-linejoin="round"/>
<path d="M8 25.3333V27.9999" stroke="#FAB005" stroke-width="2.66667" stroke-linecap="round" stroke-linejoin="round"/>
<path d="M26.667 10.6667H5.33366C3.8609 10.6667 2.66699 11.8607 2.66699 13.3334V25.3334C2.66699 26.8062 3.8609 28.0001 5.33366 28.0001H26.667C28.1398 28.0001 29.3337 26.8062 29.3337 25.3334V13.3334C29.3337 11.8607 28.1398 10.6667 26.667 10.6667Z" stroke="#FAB005" stroke-width="2.66667" stroke-linecap="round" stroke-linejoin="round"/>
</svg>
