<svg width="19" height="19" viewBox="0 0 19 19" fill="none" xmlns="http://www.w3.org/2000/svg">
<g clip-path="url(#clip0_4_8015)">
<path d="M18.0951 3.90145C17.7663 4.05407 17.423 4.17734 17.0649 4.27126C16.7068 4.36518 16.3458 4.43562 15.9819 4.48258C16.3575 4.25952 16.6863 3.97189 16.968 3.61969C17.2498 3.26749 17.4611 2.8742 17.602 2.43982C17.238 2.65114 16.8594 2.83017 16.4661 2.97692C16.0729 3.12367 15.6649 3.24401 15.2423 3.33793C14.9135 2.97399 14.5173 2.68636 14.0536 2.47504C13.5898 2.26372 13.088 2.15806 12.5479 2.15806C12.0431 2.15806 11.5618 2.25785 11.1039 2.45743C10.6578 2.64527 10.2674 2.90648 9.93284 3.24107C9.59825 3.57566 9.33703 3.96602 9.14919 4.41214C8.94961 4.87 8.84982 5.35134 8.84982 5.85616C8.84982 5.99704 8.85863 6.13792 8.87624 6.2788C8.89385 6.41968 8.92026 6.56056 8.95548 6.70144C8.18064 6.66622 7.43515 6.54882 6.71901 6.34924C6.00287 6.14966 5.32195 5.88551 4.67625 5.55679C4.03055 5.22807 3.42595 4.83478 2.86243 4.37692C2.29891 3.91906 1.78822 3.40837 1.33036 2.84485C1.166 3.11487 1.04273 3.40837 0.960546 3.72535C0.878366 4.04233 0.837276 4.37105 0.837276 4.71151C0.837276 5.35721 0.986961 5.94714 1.28633 6.48131C1.5857 7.01548 1.98193 7.4528 2.47501 7.79325C2.16977 7.78152 1.87627 7.73456 1.59451 7.65238C1.31275 7.5702 1.0486 7.45866 0.802056 7.31779V7.37062C0.802056 8.26285 1.08382 9.0465 1.64734 9.72155C2.21086 10.3966 2.91526 10.8222 3.76053 10.9983C3.60791 11.0335 3.44942 11.0628 3.28506 11.0863C3.12071 11.1098 2.95635 11.1215 2.79199 11.1215C2.67459 11.1215 2.55719 11.1157 2.43979 11.1039C2.32239 11.0922 2.21086 11.0746 2.1052 11.0511C2.34 11.7907 2.77144 12.4012 3.39953 12.8825C4.02762 13.3639 4.74669 13.6104 5.55675 13.6222C4.93453 14.1152 4.23013 14.5027 3.44355 14.7844C2.65698 15.0662 1.83518 15.2071 0.978156 15.2071C0.825536 15.2071 0.678786 15.2041 0.537906 15.1983C0.397026 15.1924 0.250276 15.1777 0.0976562 15.1542C0.508556 15.4243 0.937066 15.6591 1.38319 15.8586C1.82931 16.07 2.2901 16.2461 2.76557 16.3869C3.24104 16.5278 3.73118 16.6335 4.236 16.7039C4.74082 16.7744 5.25151 16.8096 5.76807 16.8096C7.47037 16.8096 8.97896 16.4926 10.2938 15.8586C11.597 15.2247 12.6947 14.4029 13.5869 13.3932C14.4792 12.3836 15.1542 11.2566 15.6121 10.0121C16.0699 8.76767 16.2988 7.53498 16.2988 6.31402C16.2988 6.23184 16.2988 6.15259 16.2988 6.07628C16.2988 5.99997 16.293 5.92073 16.2812 5.83855C16.6452 5.58027 16.9827 5.2897 17.2938 4.96685C17.6049 4.644 17.8837 4.29474 18.1303 3.91906L18.0951 3.90145Z" fill="#373B3E"/>
</g>
<defs>
<clipPath id="clip0_4_8015">
<rect width="18.0326" height="18.0326" fill="white" transform="matrix(1 0 0 -1 0.0976562 18.1299)"/>
</clipPath>
</defs>
</svg>
