<svg width="19" height="13" viewBox="0 0 19 13" fill="none" xmlns="http://www.w3.org/2000/svg">
<path d="M18.5163 2.13404C18.4106 1.75836 18.2199 1.42964 17.944 1.14788C17.6681 0.86612 17.3423 0.672411 16.9666 0.566751H16.949C16.5968 0.472831 16.0333 0.40239 15.2585 0.355431C14.4836 0.296731 13.697 0.255641 12.8987 0.232161C12.1004 0.208681 11.4019 0.196941 10.8031 0.196941C10.1926 0.196941 9.88741 0.196941 9.88741 0.196941C9.88741 0.196941 9.58804 0.196941 8.9893 0.196941C8.39056 0.196941 7.69497 0.208681 6.90252 0.232161C6.11007 0.255641 5.32055 0.290861 4.53397 0.337821C3.75913 0.396521 3.19561 0.472831 2.84341 0.566751C2.45599 0.672411 2.12434 0.863186 1.84845 1.13908C1.57256 1.41497 1.38178 1.74075 1.27612 2.11643L1.25851 2.13404C1.14111 2.77974 1.04719 3.46359 0.976754 4.1856C0.906314 4.90761 0.871094 5.65017 0.871094 6.41327C0.871094 6.42501 0.871094 6.43968 0.871094 6.45729C0.871094 6.4749 0.871094 6.48958 0.871094 6.50132C0.871094 6.51306 0.871094 6.5248 0.871094 6.53654C0.871094 6.54828 0.871094 6.56002 0.871094 6.57176C0.871094 7.32312 0.906314 8.06861 0.976754 8.80823C1.04719 9.54785 1.15285 10.2757 1.29373 10.9919L1.25851 10.851C1.37591 11.2267 1.57256 11.5525 1.84845 11.8283C2.12434 12.1042 2.45012 12.295 2.8258 12.4007L2.84341 12.4183C3.18387 12.5122 3.74739 12.5826 4.53397 12.6296C5.30881 12.6766 6.09539 12.7118 6.89371 12.7353C7.69203 12.7587 8.39056 12.7763 8.9893 12.7881C9.58804 12.7881 9.88741 12.7881 9.88741 12.7881C9.88741 12.7881 10.1926 12.7881 10.8031 12.7881C11.4019 12.7763 12.0975 12.7587 12.8899 12.7353C13.6824 12.7118 14.4719 12.6766 15.2585 12.6296C16.0333 12.5826 16.5968 12.5122 16.949 12.4183C17.3364 12.3009 17.6681 12.1042 17.944 11.8283C18.2199 11.5525 18.4106 11.2267 18.5163 10.851C18.6454 10.217 18.7423 9.54491 18.8069 8.83464C18.8714 8.12437 18.9037 7.39943 18.9037 6.65981C18.9037 6.62459 18.9037 6.59524 18.9037 6.57176C18.9037 6.54828 18.9037 6.51893 18.9037 6.48371V6.50132C18.9037 6.47784 18.9037 6.44849 18.9037 6.41327C18.9037 6.37805 18.9037 6.3487 18.9037 6.32522C18.9037 5.5856 18.8685 4.85478 18.7981 4.13277C18.7276 3.41076 18.6278 2.69756 18.4987 1.99316L18.5163 2.13404ZM8.09119 9.19565V3.78938L12.7931 6.50132L8.09119 9.19565Z" fill="#373B3E"/>
</svg>
